HIERARCHY
ROOT Hips
{
	OFFSET 0.00000 0.00000 0.00000
	CHANNELS 6 Xposition Yposition Zposition Zrotation Yrotation Xrotation 
	JOINT LHipJoint
	{
		OFFSET 0 0 0
		CHANNELS 3 Zrotation Yrotation Xrotation
		JOINT LeftHip
		{
			OFFSET 1.57338 -1.94743 0.52196
			CHANNELS 3 Zrotation Yrotation Xrotation
			JOINT LeftKnee
			{
				OFFSET 2.60333 -7.15259 0.00000
				CHANNELS 3 Zrotation Yrotation Xrotation
				JOINT LeftAnkle
				{
					OFFSET 2.77855 -7.63400 0.00000
					CHANNELS 3 Zrotation Yrotation Xrotation
					JOINT LeftToe
					{
						OFFSET 0.19847 -0.54529 2.28466
						CHANNELS 3 Zrotation Yrotation Xrotation
						End Site
						{
							OFFSET 0.00000 -0.00000 1.17993
						}
					}
				}
			}
		}
	}
	JOINT RHipJoint
	{
		OFFSET 0 0 0
		CHANNELS 3 Zrotation Yrotation Xrotation
		JOINT RightHip
		{
			OFFSET -1.61527 -1.94743 0.52196
			CHANNELS 3 Zrotation Yrotation Xrotation
			JOINT RightKnee
			{
				OFFSET -2.53829 -6.97390 0.00000
				CHANNELS 3 Zrotation Yrotation Xrotation
				JOINT RightAnkle
				{
					OFFSET -2.80762 -7.71387 0.00000
					CHANNELS 3 Zrotation Yrotation Xrotation
					JOINT RightToe
					{
						OFFSET -0.30536 -0.83898 2.28801
						CHANNELS 3 Zrotation Yrotation Xrotation
						End Site
						{
							OFFSET -0.00000 -0.00000 1.21323
						}
					}
				}
			}
		}
	}
	JOINT lowerback
	{
		OFFSET 0 0 0
		CHANNELS 3 Zrotation Yrotation Xrotation
		JOINT Chest
		{
			OFFSET -0.04381 1.99497 -0.19778
			CHANNELS 3 Zrotation Yrotation Xrotation
			JOINT Chest2
			{
				OFFSET -0.01959 2.01295 -0.04372
				CHANNELS 3 Zrotation Yrotation Xrotation
				JOINT lowerneck
				{
					OFFSET 0 0 0
					CHANNELS 3 Zrotation Yrotation Xrotation
					JOINT Neck
					{
						OFFSET -0.05459 1.76913 0.09708
						CHANNELS 3 Zrotation Yrotation Xrotation
						JOINT Head
						{
							OFFSET 0.09461 1.77368 -0.11172
							CHANNELS 3 Zrotation Yrotation Xrotation
							End Site
							{
								OFFSET 0.03812 1.78157 -0.04834
							}
						}
					}
				}
				JOINT LeftCollar
				{
					OFFSET 0 0 0
					CHANNELS 3 Zrotation Yrotation Xrotation
					JOINT LeftShoulder
					{
						OFFSET 3.50922 1.24034 -0.28866
CHANNELS 3 Zrotation Xrotation Yrotation
						JOINT LeftElbow
						{
OFFSET 0 -5.401880 0.000000
CHANNELS 3 Zrotation Xrotation Yrotation
							JOINT LeftWrist
							{
OFFSET 0 -3.685590 0.000000
CHANNELS 3 Zrotation Xrotation Yrotation
								JOINT lhand
								{
									OFFSET 0 0 0
CHANNELS 3 Zrotation Xrotation Yrotation
									JOINT LFingers
									{
OFFSET 0 -0.617530 0.000000
CHANNELS 3 Zrotation Xrotation Yrotation
										End Site
										{
OFFSET 0 -0.497870 0.000000
										}
									}
								}
								JOINT LThumb
								{
OFFSET 0 0.000000 0.000000
CHANNELS 3 Zrotation Xrotation Yrotation
									End Site
									{
OFFSET 0 -0.505470 0.505470
									}
								}
							}
						}
					}
				}
				JOINT RightCollar
				{
					OFFSET 0 0 0
					CHANNELS 3 Zrotation Yrotation Xrotation
					JOINT RightShoulder
					{
						OFFSET -2.95373 1.39649 -0.27346
CHANNELS 3 Zrotation Xrotation Yrotation
						JOINT RightElbow
						{
OFFSET 0 -6.106700 -0.000000
CHANNELS 3 Zrotation Xrotation Yrotation
							JOINT RightWrist
							{
OFFSET 0 -3.630520 0.000000
CHANNELS 3 Zrotation Xrotation Yrotation
								JOINT rhand
								{
									OFFSET 0 0 0
CHANNELS 3 Zrotation Xrotation Yrotation
									JOINT RFingers
									{
OFFSET 0 -0.583850 0.000000
CHANNELS 3 Zrotation Xrotation Yrotation
										End Site
										{
OFFSET 0 -0.470710 0.000000
										}
									}
								}
								JOINT RThumb
								{
OFFSET 0 0.000000 0.000000
CHANNELS 3 Zrotation Xrotation Yrotation
									End Site
									{
OFFSET 0 -0.477900 0.477900
									}
								}
							}
						}
					}
				}
			}
		}
	}
}
MOTION
Frames: 11
Frame Time: 0.008333333333333333
0.758400 18.992400 -0.968600 1.000500 -4.978500 1.380800 0.000000 0.000000 0.000000 -21.311000 -7.031900 2.695900 0.325600 3.667300 10.142600 -0.032300 10.944200 -15.091500 0.209700 -2.948200 -8.134700 0.000000 0.000000 0.000000 20.173900 19.298000 6.343700 -0.515500 -4.601900 12.776400 0.131700 -14.295400 -18.763500 -0.025800 1.036500 -2.849200 -2.055500 0.549100 3.250500 -1.495500 0.622700 -0.110600 -0.412400 0.323700 -1.941200 -9.587000 -5.778000 -8.223000 9.368600 -7.781600 11.443100 3.913000 -3.636300 5.539300 0.000000 -0.000000 0.000000 2.791500 1.725500 -0.514800 10.216600 -17.077600 1.537900 33.346900 27.257900 -29.849900 0.000000 0.000000 0.000000 -7.125000 0.000000 0.000000 3.024800 64.443400 -1.424600 0.000000 -0.000000 0.000000 -4.557300 2.689500 25.821300 -13.340200 -21.783600 -2.578200 -24.523500 24.433900 4.994900 0.000000 0.000000 0.000000 7.125000 0.000000 -0.000000 1.794900 35.462400 0.420800
0.758999 18.993466 -0.967934 1.002831 -4.996818 1.411441 0.000000 0.000000 0.000000 -21.316395 -7.085056 2.700563 0.322536 3.650381 10.095040 -0.037895 11.006681 -15.096096 0.202439 -2.896843 -7.991686 0.000000 0.000000 0.000000 20.173167 19.370073 6.344832 -0.516033 -4.604098 12.782728 0.131966 -14.317115 -18.792942 -0.024601 1.012520 -2.783188 -2.067224 0.556893 3.216728 -1.485575 0.633957 -0.109534 -0.395814 0.329362 -1.921550 -9.492546 -5.695802 -8.297671 9.325703 -7.674223 11.507913 3.892018 -3.580147 5.556086 0.000000 0.000000 0.000000 2.757728 1.757007 -0.591070 10.265692 -17.154069 1.552421 33.276958 27.080981 -29.713481 0.000000 0.000000 0.000000 -7.125000 0.000000 0.000000 2.982102 64.274941 -1.392827 0.000000 0.000000 0.000000 -4.586076 2.692764 25.881783 -13.384230 -21.847547 -2.594520 -24.297289 24.190637 4.972585 0.000000 0.000000 0.000000 7.125000 0.000000 0.000000 1.982010 35.427163 0.466495
0.760363 18.994764 -0.967666 1.000711 -5.001382 1.452315 0.000000 0.000000 0.000000 -21.317771 -7.133494 2.667020 0.322894 3.652531 10.101033 -0.038441 11.031023 -15.123350 0.191989 -2.820935 -7.780634 0.000000 0.000000 0.000000 20.162833 19.410220 6.330350 -0.515071 -4.599818 12.770651 0.130073 -14.318764 -18.818597 -0.022605 0.969604 -2.665118 -2.062137 0.558973 3.188903 -1.476779 0.637740 -0.121060 -0.389560 0.331237 -1.917846 -9.412277 -5.598322 -8.290018 9.293037 -7.547710 11.505716 3.880271 -3.517316 5.537158 0.000000 0.000000 0.000000 2.727445 1.802268 -0.682987 10.309004 -17.221469 1.565215 33.205090 26.855525 -29.565699 0.000000 0.000000 0.000000 -7.125000 0.000000 0.000000 2.940900 64.093691 -1.361153 0.000000 0.000000 0.000000 -4.620001 2.709815 25.957083 -13.424705 -21.906277 -2.609577 -24.099317 23.953984 4.938610 0.000000 0.000000 0.000000 7.125000 0.000000 0.000000 2.144802 35.380630 0.507273
0.762495 18.996296 -0.967800 0.994117 -4.992123 1.503472 0.000000 0.000000 0.000000 -21.315107 -7.177190 2.595080 0.326690 3.673847 10.160850 -0.033911 11.017035 -15.173375 0.178334 -2.720352 -7.501200 0.000000 0.000000 0.000000 20.142850 19.418280 6.300176 -0.512606 -4.589027 12.740077 0.126010 -14.300246 -18.840445 -0.019807 0.907655 -2.494727 -2.040155 0.555309 3.167055 -1.469119 0.634009 -0.145239 -0.393690 0.329305 -1.930169 -9.346265 -5.485483 -8.199627 9.270656 -7.401965 11.436174 3.877806 -3.447774 5.482337 0.000000 0.000000 0.000000 2.700667 1.861352 -0.790630 10.346506 -17.279754 1.576272 33.131285 26.581287 -29.406499 0.000000 0.000000 0.000000 -7.125000 0.000000 0.000000 2.901199 63.899586 -1.329579 0.000000 0.000000 0.000000 -4.659102 2.740723 26.047274 -13.461608 -21.959766 -2.623365 -23.929725 23.723976 4.892915 0.000000 0.000000 0.000000 7.125000 0.000000 0.000000 2.283153 35.322745 0.543110
0.764693 18.996964 -0.970126 0.988319 -4.994359 1.532570 0.000000 0.000000 0.000000 -21.311778 -7.148330 2.542542 0.328428 3.683468 10.187843 -0.025993 10.962383 -15.214695 0.150393 -2.493791 -6.872670 0.000000 0.000000 0.000000 20.129511 19.433848 6.263755 -0.510740 -4.580694 12.716479 0.135502 -14.346910 -18.795384 -0.020464 0.923845 -2.539283 -2.020034 0.553971 3.191983 -1.464980 0.631940 -0.157924 -0.401009 0.328370 -1.957043 -9.323376 -5.356365 -8.078073 9.314320 -7.234028 11.281318 3.905640 -3.366405 5.398015 0.000000 0.000000 0.000000 2.675351 1.880968 -0.826846 10.376035 -17.325680 1.585071 33.136482 26.449307 -29.251418 0.000000 0.000000 0.000000 -7.125000 0.000000 0.000000 2.963425 63.732060 -1.346377 0.000000 0.000000 0.000000 -4.690628 2.741066 26.151551 -13.480902 -21.987740 -2.630642 -23.838803 23.495763 4.745626 0.000000 0.000000 0.000000 7.125000 0.000000 0.000000 2.349545 35.157952 0.568515
0.766858 18.997763 -0.972424 0.985367 -4.991401 1.568058 0.000000 0.000000 0.000000 -21.306530 -7.105339 2.476599 0.329201 3.687705 10.199714 -0.019752 10.901315 -15.221815 0.132168 -2.342809 -6.454055 0.000000 0.000000 0.000000 20.106306 19.426296 6.210692 -0.509436 -4.574946 12.700171 0.139077 -14.348320 -18.753527 -0.021064 0.937719 -2.577437 -1.994529 0.553829 3.209988 -1.469809 0.631859 -0.167705 -0.420566 0.328231 -1.976880 -9.296199 -5.249518 -8.063044 9.345986 -7.094000 11.232983 3.924063 -3.295717 5.366937 0.000000 0.000000 0.000000 2.664154 1.885148 -0.912961 10.402899 -17.367410 1.593103 33.166371 26.294545 -29.072614 0.000000 0.000000 0.000000 -7.125000 0.000000 0.000000 3.065076 63.545394 -1.378997 0.000000 0.000000 0.000000 -4.707459 2.734787 26.252922 -13.496252 -22.009998 -2.636416 -23.740278 23.266925 4.559177 0.000000 0.000000 0.000000 7.125000 0.000000 0.000000 2.419789 34.950348 0.597861
0.768989 18.998695 -0.974689 0.985300 -4.983141 1.610089 0.000000 0.000000 0.000000 -21.299336 -7.048186 2.396999 0.329001 3.686506 10.196317 -0.015223 10.833838 -15.194238 0.123842 -2.268871 -6.249426 0.000000 0.000000 0.000000 20.073067 19.395256 6.140751 -0.508704 -4.571816 12.691245 0.136612 -14.303624 -18.715093 -0.021597 0.949043 -2.608544 -1.963555 0.554895 3.220846 -1.483730 0.633790 -0.174566 -0.452540 0.328897 -1.989537 -9.264559 -5.165322 -8.156233 9.365303 -6.982360 11.292999 3.932856 -3.235900 5.389984 0.000000 0.000000 0.000000 2.667284 1.873757 -1.049914 10.427079 -17.404912 1.600364 33.221126 26.116293 -28.869717 0.000000 0.000000 0.000000 -7.125000 0.000000 0.000000 3.206491 63.339233 -1.427557 0.000000 0.000000 0.000000 -4.709390 2.721865 26.351307 -13.507643 -22.026517 -2.640679 -23.633834 23.037450 4.333233 0.000000 0.000000 0.000000 7.125000 0.000000 0.000000 2.494127 34.699557 0.631233
0.771784 18.998302 -0.974700 0.983113 -4.951420 1.629918 0.000000 0.000000 0.000000 -21.296450 -7.030138 2.388050 0.326548 3.672714 10.157660 -0.016459 10.807453 -15.137234 0.120884 -2.241525 -6.173639 0.000000 0.000000 0.000000 20.055602 19.358184 6.097983 -0.510291 -4.578892 12.711216 0.135937 -14.296905 -18.712381 -0.022727 0.973623 -2.676303 -1.925821 0.557816 3.216857 -1.493543 0.639765 -0.142058 -0.483718 0.331153 -1.953413 -9.222844 -5.126857 -8.381976 9.358242 -6.925332 11.428439 3.924350 -3.199810 5.463137 0.000000 0.000000 0.000000 2.670614 1.802054 -1.204761 10.434292 -17.416036 1.602521 33.246519 25.909146 -28.632488 0.000000 0.000000 0.000000 -7.125000 0.000000 0.000000 3.317817 63.086678 -1.457161 0.000000 0.000000 0.000000 -4.696078 2.667917 26.333110 -13.511412 -22.031968 -2.642092 -23.485833 22.994015 4.197756 0.000000 0.000000 0.000000 7.125000 0.000000 0.000000 2.608099 34.546061 0.670040
0.774187 18.997376 -0.974536 1.020907 -4.936747 1.634375 0.000000 0.000000 0.000000 -21.343115 -7.033696 2.408991 0.323590 3.656162 10.111262 -0.018448 10.806204 -15.104617 0.121143 -2.243849 -6.180032 0.000000 0.000000 0.000000 19.995922 19.324798 6.057785 -0.512481 -4.588519 12.738502 0.134416 -14.280905 -18.706660 -0.024221 1.005109 -2.762926 -1.937056 0.568509 3.236539 -1.511655 0.653324 -0.110832 -0.496639 0.337694 -1.932402 -9.228208 -5.076782 -8.561817 9.418370 -6.855424 11.509566 3.947166 -3.156769 5.514376 0.000000 0.000000 0.000000 2.666939 1.742874 -1.370452 10.469473 -17.470505 1.613072 33.136167 25.834786 -28.675195 0.000000 0.000000 0.000000 -7.125000 0.000000 0.000000 3.159439 63.102553 -1.387545 0.000000 0.000000 0.000000 -4.692095 2.631324 26.347279 -13.530237 -22.059202 -2.649147 -23.398894 22.932870 4.130650 0.000000 0.000000 0.000000 7.125000 0.000000 0.000000 2.675766 34.469521 0.692199
0.776185 18.995911 -0.974203 1.099708 -4.939678 1.623184 0.000000 0.000000 0.000000 -21.440567 -7.059208 2.460215 0.320126 3.636845 10.057107 -0.021179 10.830517 -15.097156 0.124673 -2.276356 -6.270023 0.000000 0.000000 0.000000 19.892875 19.295222 6.020083 -0.515279 -4.600708 12.773140 0.132018 -14.255193 -18.697668 -0.026086 1.043611 -2.868705 -1.998538 0.587160 3.280569 -1.538300 0.674640 -0.081123 -0.490844 0.348618 -1.927140 -9.281896 -5.014568 -8.693907 9.547529 -6.772027 11.534612 4.002186 -3.106478 5.542886 0.000000 0.000000 0.000000 2.656082 1.696846 -1.547171 10.533419 -17.569555 1.632256 32.886775 25.896734 -29.005119 0.000000 0.000000 0.000000 -7.125000 0.000000 0.000000 2.724669 63.393909 -1.216288 0.000000 0.000000 0.000000 -4.697757 2.612740 26.395239 -13.564542 -22.108827 -2.662003 -23.374781 22.852604 4.133181 0.000000 0.000000 0.000000 7.125000 0.000000 0.000000 2.695750 34.471386 0.697262
0.777721 18.994908 -0.977241 1.103672 -4.955765 1.610142 0.000000 0.000000 0.000000 -21.441564 -7.034278 2.467277 0.316861 3.618454 10.005597 -0.031381 10.864416 -14.988415 0.154978 -2.530199 -6.973716 0.000000 0.000000 0.000000 19.881060 19.306173 5.993620 -0.517812 -4.612039 12.805199 0.130083 -14.240125 -18.698063 -0.026431 1.050048 -2.886556 -2.021742 0.597613 3.361224 -1.515494 0.685907 -0.064967 -0.455828 0.354650 -1.956321 -9.349071 -4.896292 -8.744747 9.646541 -6.609033 11.513248 4.058661 -3.022471 5.534307 0.000000 0.000000 0.000000 2.609194 1.685526 -1.745178 10.620108 -17.703512 1.658580 32.648358 26.033519 -29.520020 0.000000 0.000000 0.000000 -7.125000 0.000000 0.000000 2.220153 63.886175 -1.013628 0.000000 0.000000 0.000000 -4.739582 2.599114 26.449810 -13.598516 -22.157857 -2.674793 -23.493003 22.795608 3.983460 0.000000 0.000000 0.000000 7.125000 0.000000 0.000000 2.589595 34.313132 0.679516
